<svg xmlns="http://www.w3.org/2000/svg" viewBox="0 0 256 256" role="img" aria-label="Croissant icon">
  <defs>
    <linearGradient id="outer" x1="60" y1="60" x2="200" y2="210" gradientUnits="userSpaceOnUse">
      <stop stop-color="#fbbf24"/>
      <stop offset="1" stop-color="#f59e0b"/>
    </linearGradient>
    <linearGradient id="inner" x1="90" y1="110" x2="170" y2="210" gradientUnits="userSpaceOnUse">
      <stop stop-color="#fde68a"/>
      <stop offset="1" stop-color="#f59e0b" stop-opacity="0.3"/>
    </linearGradient>
  </defs>

  <!-- Main crescent -->
  <path d="M62 140c18 38 52 64 96 64 38 0 70-18 86-46-18 10-44 6-60-12-14-16-16-38-6-58 6-12 16-22 28-28-48-10-94 14-110 52-12 28-9 58-34 28z" fill="url(#outer)" stroke="#9a3412" stroke-opacity="0.18" stroke-width="4"/>

  <!-- Layers -->
  <path d="M92 142c20 22 54 34 86 22" fill="none" stroke="#b45309" stroke-opacity="0.22" stroke-width="10" stroke-linecap="round"/>
  <path d="M84 120c16 18 44 28 72 22" fill="none" stroke="#b45309" stroke-opacity="0.18" stroke-width="8" stroke-linecap="round"/>
  <path d="M112 98c14 12 34 18 54 14" fill="none" stroke="#b45309" stroke-opacity="0.16" stroke-width="7" stroke-linecap="round"/>

  <!-- Filling highlight -->
  <path d="M96 164c10 10 26 16 44 16 18 0 34-6 44-16-12-8-20-18-22-30-1-10 2-20 10-28-16 2-28 10-34 22-6 14-10 30-42 16z" fill="url(#inner)" opacity="0.8"/>
</svg>

