<svg xmlns="http://www.w3.org/2000/svg" viewBox="0 0 256 256" role="img" aria-label="Matcha icon">
  <defs>
    <linearGradient id="cup5" x1="76" y1="90" x2="188" y2="230" gradientUnits="userSpaceOnUse">
      <stop stop-color="#d1fae5"/>
      <stop offset="1" stop-color="#34d399" stop-opacity="0.20"/>
    </linearGradient>
    <linearGradient id="green" x1="70" y1="110" x2="190" y2="220" gradientUnits="userSpaceOnUse">
      <stop stop-color="#22c55e" stop-opacity="0.75"/>
      <stop offset="1" stop-color="#16a34a" stop-opacity="0.18"/>
    </linearGradient>
  </defs>

  <!-- Steam -->
  <path d="M106 50c-10 14-7 26 5 36 12 10 10 22 0 34" fill="none" stroke="#86efac" stroke-opacity="0.75" stroke-width="10" stroke-linecap="round"/>
  <path d="M150 52c-10 14-7 26 5 36 12 10 10 22 0 34" fill="none" stroke="#4ade80" stroke-opacity="0.55" stroke-width="10" stroke-linecap="round"/>

  <!-- Cup -->
  <path d="M78 96h120l-12 118c-1 10-10 18-20 18H112c-10 0-19-8-20-18L78 96z" fill="url(#cup5)" stroke="#065f46" stroke-opacity="0.18" stroke-width="4"/>
  <path d="M92 84h96c8 0 14 6 14 14v10H78v-10c0-8 6-14 14-14z" fill="#bbf7d0" opacity="0.95" stroke="#065f46" stroke-opacity="0.16" stroke-width="4"/>

  <!-- Matcha layer -->
  <path d="M92 132c26 10 52 10 72 4 18-6 28-14 28-14l-8 62c-1 10-10 18-20 18H112c-10 0-19-8-20-18l-8-54z" fill="url(#green)"/>

  <!-- Foam swirl -->
  <path d="M118 166c10-18 28-18 34-8 6 10-2 24-20 24-16 0-22-10-14-16z" fill="#dcfce7" opacity="0.95"/>
</svg>

