<svg xmlns="http://www.w3.org/2000/svg" viewBox="0 0 256 256" role="img" aria-label="Muffin icon">
  <defs>
    <linearGradient id="top" x1="70" y1="40" x2="190" y2="210" gradientUnits="userSpaceOnUse">
      <stop stop-color="#7c2d12" stop-opacity="0.9"/>
      <stop offset="1" stop-color="#fb923c" stop-opacity="0.25"/>
    </linearGradient>
    <linearGradient id="wrapper" x1="70" y1="140" x2="190" y2="240" gradientUnits="userSpaceOnUse">
      <stop stop-color="#fde68a"/>
      <stop offset="1" stop-color="#f59e0b" stop-opacity="0.25"/>
    </linearGradient>
  </defs>

  <!-- Wrapper -->
  <path d="M70 112c0-16 12-30 30-30h56c18 0 30 14 30 30l-12 92c-2 16-16 28-32 28H114c-16 0-30-12-32-28L70 112z" fill="url(#wrapper)" stroke="#9a3412" stroke-opacity="0.18" stroke-width="4"/>
  <!-- Muffin -->
  <path d="M88 102c0-24 20-44 44-44s44 20 44 44c0 34-20 66-44 66s-44-32-44-66z" fill="url(#top)" stroke="#7c2d12" stroke-opacity="0.18" stroke-width="4"/>
  <!-- Crumb dots -->
  <circle cx="122" cy="104" r="5" fill="#7c2d12" opacity="0.35"/>
  <circle cx="144" cy="114" r="4" fill="#7c2d12" opacity="0.28"/>
  <circle cx="116" cy="124" r="3.5" fill="#7c2d12" opacity="0.25"/>
  <circle cx="150" cy="132" r="4.5" fill="#7c2d12" opacity="0.30"/>
  <!-- Wrapper base -->
  <path d="M86 178c14 10 32 16 44 16s30-6 44-16" fill="none" stroke="#b45309" stroke-opacity="0.25" stroke-width="8" stroke-linecap="round"/>
</svg>

